<svg xmlns="http://www.w3.org/2000/svg" width="1080" height="1080" viewBox="0 0 1080 1080" fill="none">
<rect xmlns="http://www.w3.org/2000/svg" width="1080" height="1080" fill="black"></rect>
<path xmlns="http://www.w3.org/2000/svg" d="M312.635 310.448C331.492 310.01 351.037 310.536 370.135 310.191C383.528 310.537 397.529 309.121 410.75 310.992C426.745 313.255 423.655 332.447 423.592 343.867L423.571 376.157L423.567 471.891C423.549 510.609 420.886 545.559 434.185 582.73C449.128 624.5 474.299 661.965 514.083 683.635C518.771 686.185 536.338 696.1 540.819 693.081C547.945 675.479 491.319 658.956 505.346 635.727C507.63 631.944 521.817 635.016 525.72 635.648C559.562 641.122 595.299 631.844 621.662 609.768C667.234 572.345 670.488 495.705 623.447 457.865C615.212 451.226 600.864 448.42 602.391 435.558C602.091 414.194 602.139 391.915 602.139 370.603L602.144 340.841C602.144 336.538 601.765 319.109 603.629 316.448C610.4 306.774 628.492 313.922 637.601 316.431C670.182 325.408 697.215 344.069 721.109 367.57C747.43 396.134 765.469 426.475 775.515 464.409C793.407 531.937 783.213 607.487 742.939 665.142C711.668 710.847 669.077 743.186 616.129 759.656C579.572 771.031 540.489 773.649 502.42 768.418C431.629 758.686 366.365 714.203 330.399 652.539C317.474 630.385 305.746 599.647 301.586 573.968C295.646 527.4 298.084 478.379 297.643 431.3C297.305 407.872 297.171 384.441 297.242 361.011C297.184 349.44 296.759 337.709 297.194 326.165C297.539 317.01 304.057 311.635 312.635 310.448Z" fill="#FBFBFA"></path>
</svg>